<svg width="1200" height="630" xmlns="http://www.w3.org/2000/svg">
  <defs>
    <linearGradient id="chartLine" x1="0%" y1="100%" x2="100%" y2="0%">
      <stop offset="0%" style="stop-color:#171717;stop-opacity:0.3" />
      <stop offset="100%" style="stop-color:#171717;stop-opacity:1" />
    </linearGradient>
  </defs>

  <!-- Background -->
  <rect width="1200" height="630" fill="#f5f5f0"/>

  <!-- Card -->
  <rect x="60" y="60" width="1080" height="510" rx="24" fill="white" filter="drop-shadow(0 4px 6px rgba(0,0,0,0.05))"/>

  <!-- Title -->
  <text x="120" y="140" font-family="system-ui, -apple-system, sans-serif" font-size="48" font-weight="bold" fill="#171717">WorthThen</text>
  <text x="120" y="185" font-family="system-ui, -apple-system, sans-serif" font-size="24" fill="#6b7280">What your money was really worth</text>

  <!-- Sample Chart Line (simplified) -->
  <path d="M 120 450 Q 300 440 400 420 T 600 350 T 800 280 T 1000 180"
        stroke="url(#chartLine)" stroke-width="4" fill="none" stroke-linecap="round"/>

  <!-- Chart area fill -->
  <path d="M 120 450 Q 300 440 400 420 T 600 350 T 800 280 T 1000 180 L 1000 450 L 120 450 Z"
        fill="#171717" fill-opacity="0.05"/>

  <!-- Year labels -->
  <text x="120" y="490" font-family="system-ui, -apple-system, sans-serif" font-size="18" fill="#9ca3af">1950</text>
  <text x="1000" y="490" font-family="system-ui, -apple-system, sans-serif" font-size="18" fill="#9ca3af" text-anchor="end">2024</text>

  <!-- Price examples -->
  <rect x="120" y="230" width="200" height="80" rx="12" fill="#f9fafb"/>
  <text x="140" y="265" font-family="system-ui, -apple-system, sans-serif" font-size="14" fill="#6b7280">Gas in 1950</text>
  <text x="140" y="295" font-family="system-ui, -apple-system, sans-serif" font-size="28" font-weight="bold" fill="#171717">$0.27</text>

  <rect x="340" y="230" width="200" height="80" rx="12" fill="#f9fafb"/>
  <text x="360" y="265" font-family="system-ui, -apple-system, sans-serif" font-size="14" fill="#6b7280">Gas in 2024</text>
  <text x="360" y="295" font-family="system-ui, -apple-system, sans-serif" font-size="28" font-weight="bold" fill="#171717">$3.50</text>

  <!-- Call to action -->
  <text x="600" y="540" font-family="system-ui, -apple-system, sans-serif" font-size="20" fill="#171717" text-anchor="middle">Explore 74 years of price history</text>
</svg>
